HIERARCHY
ROOT Hips
{
	OFFSET 0.00000 0.00000 0.00000
	CHANNELS 6 Xposition Yposition Zposition Zrotation Yrotation Xrotation 
	JOINT LHipJoint
	{
		OFFSET 0 0 0
		CHANNELS 3 Zrotation Yrotation Xrotation
		JOINT LeftHip
		{
			OFFSET 1.27966 -1.91611 0.81506
			CHANNELS 3 Zrotation Yrotation Xrotation
			JOINT LeftKnee
			{
				OFFSET 2.49511 -6.85528 0.00000
				CHANNELS 3 Zrotation Yrotation Xrotation
				JOINT LeftAnkle
				{
					OFFSET 2.67286 -7.34045 0.00000
					CHANNELS 3 Zrotation Yrotation Xrotation
					JOINT LeftToe
					{
						OFFSET 0.22740 -0.62477 2.32102
						CHANNELS 3 Zrotation Yrotation Xrotation
						End Site
						{
							OFFSET 0.00000 -0.00000 1.20480
						}
					}
				}
			}
		}
	}
	JOINT RHipJoint
	{
		OFFSET 0 0 0
		CHANNELS 3 Zrotation Yrotation Xrotation
		JOINT RightHip
		{
			OFFSET -1.09666 -1.91611 0.81505
			CHANNELS 3 Zrotation Yrotation Xrotation
			JOINT RightKnee
			{
				OFFSET -2.51373 -6.90642 0.00000
				CHANNELS 3 Zrotation Yrotation Xrotation
				JOINT RightAnkle
				{
					OFFSET -2.70173 -7.42295 0.00000
					CHANNELS 3 Zrotation Yrotation Xrotation
					JOINT RightToe
					{
						OFFSET -0.22214 -0.61032 2.18267
						CHANNELS 3 Zrotation Yrotation Xrotation
						End Site
						{
							OFFSET -0.00000 -0.00000 1.13683
						}
					}
				}
			}
		}
	}
	JOINT lowerback
	{
		OFFSET 0 0 0
		CHANNELS 3 Zrotation Yrotation Xrotation
		JOINT Chest
		{
			OFFSET -0.00990 2.16804 -0.08389
			CHANNELS 3 Zrotation Yrotation Xrotation
			JOINT Chest2
			{
				OFFSET 0.06407 2.15456 0.07285
				CHANNELS 3 Zrotation Yrotation Xrotation
				JOINT lowerneck
				{
					OFFSET 0 0 0
					CHANNELS 3 Zrotation Yrotation Xrotation
					JOINT Neck
					{
						OFFSET -0.16931 1.61602 0.24462
						CHANNELS 3 Zrotation Yrotation Xrotation
						JOINT Head
						{
							OFFSET 0.21556 1.63376 -0.33896
							CHANNELS 3 Zrotation Yrotation Xrotation
							End Site
							{
								OFFSET 0.08444 1.69244 -0.14900
							}
						}
					}
				}
				JOINT LeftCollar
				{
					OFFSET 0 0 0
					CHANNELS 3 Zrotation Yrotation Xrotation
					JOINT LeftShoulder
					{
						OFFSET 2.89000 1.40150 -0.54392
CHANNELS 3 Zrotation Xrotation Yrotation
						JOINT LeftElbow
						{
OFFSET 0 -5.107550 0.000000
CHANNELS 3 Zrotation Xrotation Yrotation
							JOINT LeftWrist
							{
OFFSET 0 -3.362530 0.000000
CHANNELS 3 Zrotation Xrotation Yrotation
								JOINT lhand
								{
									OFFSET 0 0 0
CHANNELS 3 Zrotation Xrotation Yrotation
									JOINT LFingers
									{
OFFSET 0 -0.619090 0.000000
CHANNELS 3 Zrotation Xrotation Yrotation
										End Site
										{
OFFSET 0 -0.499120 0.000000
										}
									}
								}
								JOINT LThumb
								{
OFFSET 0 0.000000 0.000000
CHANNELS 3 Zrotation Xrotation Yrotation
									End Site
									{
OFFSET 0 -0.506750 0.506750
									}
								}
							}
						}
					}
				}
				JOINT RightCollar
				{
					OFFSET 0 0 0
					CHANNELS 3 Zrotation Yrotation Xrotation
					JOINT RightShoulder
					{
						OFFSET -2.65771 1.70968 -0.54312
CHANNELS 3 Zrotation Xrotation Yrotation
						JOINT RightElbow
						{
OFFSET 0 -5.273870 0.000000
CHANNELS 3 Zrotation Xrotation Yrotation
							JOINT RightWrist
							{
OFFSET 0 -3.401440 0.000000
CHANNELS 3 Zrotation Xrotation Yrotation
								JOINT rhand
								{
									OFFSET 0 0 0
CHANNELS 3 Zrotation Xrotation Yrotation
									JOINT RFingers
									{
OFFSET 0 -0.742820 0.000000
CHANNELS 3 Zrotation Xrotation Yrotation
										End Site
										{
OFFSET 0 -0.598880 0.000000
										}
									}
								}
								JOINT RThumb
								{
OFFSET 0 0.000000 0.000000
CHANNELS 3 Zrotation Xrotation Yrotation
									End Site
									{
OFFSET 0 -0.608030 0.608030
									}
								}
							}
						}
					}
				}
			}
		}
	}
}
MOTION
Frames: 7
Frame Time: 0.008333333333333333
0.180931 18.056480 -3.580128 -4.571669 -0.477004 1.674201 0.000000 0.000000 0.000000 -13.236725 -0.572118 -5.903255 2.128682 9.129065 26.199939 1.092442 -3.741811 -18.862341 0.464815 -4.372919 -12.128223 0.000000 0.000000 0.000000 23.863537 4.775874 -4.582171 -2.028218 -8.924601 25.559788 -0.989927 -1.741770 -19.500348 -0.810871 5.746390 -16.050281 1.260060 -0.563846 4.433491 3.235445 -0.503238 -2.932936 2.703743 -0.230061 -5.516753 -18.053728 -8.081408 -13.677168 14.231408 -11.069820 25.616365 6.797125 -5.167276 12.640871 0.000000 0.000000 0.000000 -1.209751 7.982849 -15.483242 14.545731 -23.509465 3.042373 40.783893 32.866720 -32.154786 0.000000 0.000000 0.000000 -7.125000 0.000000 0.000000 13.596817 69.238374 -7.946277 0.000000 0.000000 0.000000 -3.104409 3.096079 17.205263 -13.158003 -21.518300 -2.510984 -30.173360 5.697508 -9.037792 0.000000 0.000000 0.000000 7.125000 0.000000 0.000000 -2.315821 19.559458 -1.407040
0.170907 18.054289 -3.573136 -4.578178 -0.257231 1.751472 0.000000 0.000000 0.000000 -13.133263 -0.508327 -6.287968 2.188093 9.247382 26.572338 1.104446 -4.002847 -18.933949 0.532219 -4.674618 -12.982760 0.000000 0.000000 0.000000 24.033852 5.160305 -4.514458 -2.033899 -8.936302 25.596424 -0.972916 -2.428116 -19.657175 -0.758423 5.561834 -15.518384 1.350003 -0.363363 4.689173 3.250956 -0.230796 -2.594109 2.642248 -0.099523 -5.317793 -18.546623 -7.625893 -13.665110 14.449193 -10.214378 24.727257 7.081244 -4.794370 12.155824 0.000000 0.000000 0.000000 -0.460667 8.278417 -19.984363 16.562656 -26.277636 3.891685 33.082270 22.953185 -34.143576 0.000000 0.000000 0.000000 -7.125000 0.000000 0.000000 0.555999 68.964832 -0.320373 0.000000 0.000000 0.000000 -2.614631 3.444401 16.206920 -12.817973 -21.019879 -2.387596 -22.782190 4.421711 -9.620678 0.000000 0.000000 0.000000 7.125000 0.000000 0.000000 2.985683 19.569451 1.815567
0.079129 18.056300 -3.615155 -4.493143 0.714102 1.807600 0.000000 0.000000 0.000000 -12.745021 0.052319 -7.306105 2.254102 9.376386 26.979912 1.043271 -4.603328 -18.317386 0.829147 -5.809229 -16.231935 0.000000 0.000000 0.000000 24.362911 5.005565 -5.039641 -2.110445 -9.092390 26.084851 -0.970628 -3.106734 -19.976951 -0.728759 5.454418 -15.209338 1.228510 -0.460202 5.393014 3.176498 -0.347229 -2.649832 2.655614 -0.152332 -5.774129 -18.527854 -7.288932 -12.758926 13.943394 -9.680552 24.174079 6.948520 -4.629065 11.614900 0.000000 0.000000 0.000000 -1.605648 8.449600 -21.388237 16.080253 -25.629271 3.680595 18.055616 8.261792 -28.880165 0.000000 0.000000 0.000000 -7.125000 0.000000 0.000000 -14.630586 59.500647 5.249043 0.000000 0.000000 0.000000 -2.697462 3.015273 17.736569 -13.091161 -21.420588 -2.486502 -24.437108 3.591747 -8.906676 0.000000 0.000000 0.000000 7.125000 0.000000 0.000000 1.776577 20.215073 1.053717
-0.107082 18.055671 -3.652146 -4.319602 0.390245 1.763067 0.000000 0.000000 0.000000 -12.488328 -1.528299 -6.486556 2.189885 9.250812 26.583074 1.049163 -3.544001 -18.499645 0.611802 -5.006165 -13.926149 0.000000 0.000000 0.000000 24.750268 5.105293 -5.111072 -2.105411 -9.082263 26.053012 -0.986023 -2.631436 -19.880215 -0.621108 5.043431 -14.032472 1.737518 -0.214412 5.342332 3.209585 -0.000031 -2.081174 2.358718 -0.000384 -5.161270 -18.665052 -7.998250 -14.801583 12.812523 -9.993028 24.541174 6.436081 -4.827186 12.183544 0.000000 0.000000 0.000000 -1.759999 8.037316 -19.904549 15.398514 -24.698360 3.390704 19.510241 7.343482 -24.070186 0.000000 0.000000 0.000000 -7.125000 0.000000 0.000000 -10.516193 55.027540 2.611721 0.000000 0.000000 0.000000 -3.049524 1.138702 18.376271 -12.954021 -21.219686 -2.436597 -24.655583 3.127388 -9.726607 0.000000 0.000000 0.000000 7.125000 0.000000 0.000000 1.654749 19.301190 1.015053
-0.242570 18.059811 -3.714763 -3.680995 1.618937 1.676787 0.000000 0.000000 0.000000 -12.660189 -2.224586 -6.450884 2.128042 9.127773 26.195734 0.980440 -3.943590 -17.807733 0.611659 -5.005637 -13.924743 0.000000 0.000000 0.000000 24.584032 4.576888 -5.752587 -2.196059 -9.262995 26.621583 -0.991142 -3.245015 -20.241488 -0.413840 4.129265 -11.440577 1.803494 -0.368101 5.548319 3.314769 -0.191553 -1.952986 2.450773 -0.095459 -5.139321 -19.457118 -8.422501 -13.942365 14.494613 -10.881124 22.867580 7.036453 -5.128779 11.701288 0.000000 0.000000 0.000000 -1.972366 8.183187 -20.830717 16.992955 -26.848452 4.084124 16.226960 8.533768 -31.134715 0.000000 0.000000 0.000000 -7.125000 0.000000 0.000000 -18.217303 61.232199 7.339488 0.000000 0.000000 0.000000 -3.110252 1.795318 18.514558 -12.954045 -21.219805 -2.436590 -24.411050 2.957651 -10.507647 0.000000 0.000000 0.000000 7.125000 0.000000 0.000000 1.864207 18.470465 1.178177
-0.423279 18.067680 -3.777819 -3.931578 1.247177 1.967274 0.000000 0.000000 0.000000 -11.750608 -2.576730 -7.076425 2.160844 9.193327 26.402063 0.963241 -3.287282 -17.735812 0.617732 -5.029807 -13.993697 0.000000 0.000000 0.000000 25.460317 5.193933 -5.917279 -2.118254 -9.108228 26.134504 -0.961198 -3.024807 -19.845546 -0.443014 4.270510 -11.839017 2.296338 -0.285343 5.667212 3.567755 -0.025267 -1.956120 2.422901 -0.024744 -5.217107 -19.003864 -8.248664 -13.636850 14.002326 -10.694468 23.146143 6.812332 -5.069700 11.643468 0.000000 0.000000 0.000000 -2.340826 8.718400 -20.344822 16.472191 -26.156709 3.851756 15.729892 9.023999 -31.195788 0.000000 0.000000 0.000000 -7.125000 0.000000 0.000000 -18.809921 61.167577 7.562348 0.000000 0.000000 0.000000 -3.371642 1.128172 19.349440 -13.096422 -21.428402 -2.488415 -23.851400 2.185712 -10.248301 0.000000 0.000000 0.000000 7.125000 0.000000 0.000000 2.248315 18.802448 1.404790
-0.412428 18.060443 -3.699553 -3.795506 0.776550 2.047558 0.000000 0.000000 0.000000 -11.982959 -2.387604 -6.543083 2.104194 9.079789 26.045229 0.987914 -3.001445 -18.017122 0.641435 -5.123648 -14.261579 0.000000 0.000000 0.000000 25.239501 5.078517 -5.909779 -2.174855 -9.221211 26.489770 -1.016240 -2.440785 -20.069783 -0.486415 4.472290 -12.409248 1.777860 -0.830661 5.180308 3.338909 -0.803938 -2.539225 2.555933 -0.396523 -5.525622 -18.769331 -7.744041 -14.326757 13.625380 -9.922067 24.419418 6.803248 -4.736932 12.077763 0.000000 0.000000 0.000000 -1.892292 9.037148 -21.800584 16.794513 -26.586069 3.994922 13.638987 8.446282 -36.079182 0.000000 0.000000 0.000000 -7.125000 0.000000 0.000000 -26.670183 64.878973 13.892780 0.000000 0.000000 0.000000 -3.893085 1.974688 18.037495 -12.921881 -21.172605 -2.425032 -23.722574 3.416634 -9.011554 0.000000 0.000000 0.000000 7.125000 0.000000 0.000000 2.293336 20.155838 1.363577
